<mxfile host="app.diagrams.net" modified="2023-11-23T03:38:14.656Z" agent="Mozilla/5.0 (X11; Linux x86_64; rv:109.0) Gecko/20100101 Firefox/118.0" etag="BgD8zMNJTa5j7vwOCbIv" version="22.1.3" type="device">
  <diagram name="Page-1" id="lUgY0eqnA-s56gJzhNGO">
    <mxGraphModel dx="1114" dy="582" grid="1" gridSize="10" guides="1" tooltips="1" connect="1" arrows="1" fold="1" page="1" pageScale="1" pageWidth="850" pageHeight="1100" math="0" shadow="0">
      <root>
        <mxCell id="0" />
        <mxCell id="1" parent="0" />
        <mxCell id="RpBoqEilAfY-4WKsVw1X-1" value="&lt;b&gt;Server VM&lt;/b&gt;" style="rounded=1;whiteSpace=wrap;html=1;labelPosition=center;verticalLabelPosition=bottom;align=center;verticalAlign=top;" vertex="1" parent="1">
          <mxGeometry x="38" y="45" width="260" height="165" as="geometry" />
        </mxCell>
        <mxCell id="RpBoqEilAfY-4WKsVw1X-9" value="docker-compose" style="rounded=1;whiteSpace=wrap;html=1;labelPosition=center;verticalLabelPosition=bottom;align=center;verticalAlign=top;" vertex="1" parent="1">
          <mxGeometry x="48" y="55" width="192" height="125" as="geometry" />
        </mxCell>
        <mxCell id="RpBoqEilAfY-4WKsVw1X-3" value="GethSigner" style="shape=image;html=1;verticalAlign=middle;verticalLabelPosition=middle;labelBackgroundColor=#ffffff;imageAspect=0;aspect=fixed;image=https://cdn1.iconfinder.com/data/icons/ionicons-fill-vol-2/512/logo-docker-128.png;labelPosition=right;align=left;" vertex="1" parent="1">
          <mxGeometry x="60" y="60" width="40" height="40" as="geometry" />
        </mxCell>
        <mxCell id="RpBoqEilAfY-4WKsVw1X-6" value="IPFS node" style="shape=image;html=1;verticalAlign=middle;verticalLabelPosition=middle;labelBackgroundColor=#ffffff;imageAspect=0;aspect=fixed;image=https://cdn1.iconfinder.com/data/icons/ionicons-fill-vol-2/512/logo-docker-128.png;labelPosition=right;align=left;" vertex="1" parent="1">
          <mxGeometry x="60" y="100" width="40" height="40" as="geometry" />
        </mxCell>
        <mxCell id="RpBoqEilAfY-4WKsVw1X-7" value="Flask server" style="shape=image;html=1;verticalAlign=middle;verticalLabelPosition=middle;labelBackgroundColor=#ffffff;imageAspect=0;aspect=fixed;image=https://cdn1.iconfinder.com/data/icons/ionicons-fill-vol-2/512/logo-docker-128.png;labelPosition=right;align=left;" vertex="1" parent="1">
          <mxGeometry x="60" y="140" width="40" height="40" as="geometry" />
        </mxCell>
        <mxCell id="RpBoqEilAfY-4WKsVw1X-8" value="&lt;div align=&quot;left&quot;&gt;Ports:&lt;/div&gt;&lt;div align=&quot;left&quot;&gt;&amp;nbsp; GethSigner: 8545, 30303, 54001&lt;br&gt;&lt;/div&gt;&lt;div&gt;&amp;nbsp; IPFS node: 8080, 4001, 5001, 54000&lt;/div&gt;&lt;div&gt;&amp;nbsp; Flask server: 54002&lt;br&gt;&lt;/div&gt;" style="rounded=0;whiteSpace=wrap;html=1;align=left;" vertex="1" parent="1">
          <mxGeometry x="230" y="77.5" width="210" height="80" as="geometry" />
        </mxCell>
        <mxCell id="RpBoqEilAfY-4WKsVw1X-10" value="&lt;b&gt;Client VM&lt;br&gt;&lt;/b&gt;" style="rounded=1;whiteSpace=wrap;html=1;labelPosition=center;verticalLabelPosition=bottom;align=center;verticalAlign=top;" vertex="1" parent="1">
          <mxGeometry x="38" y="260" width="260" height="165" as="geometry" />
        </mxCell>
        <mxCell id="RpBoqEilAfY-4WKsVw1X-11" value="docker-compose" style="rounded=1;whiteSpace=wrap;html=1;labelPosition=center;verticalLabelPosition=bottom;align=center;verticalAlign=top;" vertex="1" parent="1">
          <mxGeometry x="48" y="270" width="192" height="125" as="geometry" />
        </mxCell>
        <mxCell id="RpBoqEilAfY-4WKsVw1X-12" value="GethNode" style="shape=image;html=1;verticalAlign=middle;verticalLabelPosition=middle;labelBackgroundColor=#ffffff;imageAspect=0;aspect=fixed;image=https://cdn1.iconfinder.com/data/icons/ionicons-fill-vol-2/512/logo-docker-128.png;labelPosition=right;align=left;" vertex="1" parent="1">
          <mxGeometry x="60" y="275" width="40" height="40" as="geometry" />
        </mxCell>
        <mxCell id="RpBoqEilAfY-4WKsVw1X-13" value="IPFS node" style="shape=image;html=1;verticalAlign=middle;verticalLabelPosition=middle;labelBackgroundColor=#ffffff;imageAspect=0;aspect=fixed;image=https://cdn1.iconfinder.com/data/icons/ionicons-fill-vol-2/512/logo-docker-128.png;labelPosition=right;align=left;" vertex="1" parent="1">
          <mxGeometry x="60" y="315" width="40" height="40" as="geometry" />
        </mxCell>
        <mxCell id="RpBoqEilAfY-4WKsVw1X-14" value="Flask updater" style="shape=image;html=1;verticalAlign=middle;verticalLabelPosition=middle;labelBackgroundColor=#ffffff;imageAspect=0;aspect=fixed;image=https://cdn1.iconfinder.com/data/icons/ionicons-fill-vol-2/512/logo-docker-128.png;labelPosition=right;align=left;" vertex="1" parent="1">
          <mxGeometry x="60" y="355" width="40" height="40" as="geometry" />
        </mxCell>
        <mxCell id="RpBoqEilAfY-4WKsVw1X-15" value="&lt;div align=&quot;left&quot;&gt;Ports:&lt;/div&gt;&lt;div align=&quot;left&quot;&gt;&amp;nbsp; GethNode: 8545, 30302&lt;br&gt;&lt;/div&gt;&lt;div&gt;&amp;nbsp; IPFS node: 8080, 4001, 5001&lt;/div&gt;&amp;nbsp; Flask updater: 54000" style="rounded=0;whiteSpace=wrap;html=1;align=left;" vertex="1" parent="1">
          <mxGeometry x="230" y="292.5" width="210" height="80" as="geometry" />
        </mxCell>
      </root>
    </mxGraphModel>
  </diagram>
</mxfile>
